<svg xmlns="http://www.w3.org/2000/svg" viewBox="0 0 1024 1024" width="1024" height="1024">
  <g transform="translate(0.000000,1024.000000) scale(0.100000,-0.100000)" fill="#000000" stroke="none">
    <path d="M5497 7859 c-85 -11 -248 -52 -330 -83 -309 -116 -592 -355 -804
-677 -77 -118 -179 -328 -228 -469 -39 -114 -95 -329 -95 -370 -1 -23 -1 -24
-12 -6 -12 22 -6 208 12 341 14 104 53 259 85 337 14 34 23 63 21 66 -3 2 -42
-27 -88 -64 -399 -325 -965 -544 -1406 -544 -244 0 -369 45 -424 153 -32 63
-21 121 32 170 39 37 45 39 88 34 66 -7 102 -49 102 -118 0 -47 1 -49 21 -39
67 36 79 163 23 242 -40 58 -119 98 -190 98 -172 0 -324 -155 -324 -330 0 -87
29 -149 130 -285 110 -148 159 -232 215 -372 91 -225 125 -402 125 -651 0
-391 -122 -747 -325 -947 -84 -84 -157 -128 -244 -151 -72 -18 -121 -14 -190
17 -57 25 -87 53 -113 103 -72 140 49 290 179 223 36 -19 44 -35 52 -102 l6
-50 36 35 c63 62 62 165 -3 244 -61 74 -161 101 -263 72 -72 -22 -118 -51
-173 -110 -71 -77 -86 -122 -87 -252 0 -107 1 -112 38 -186 43 -88 131 -177
212 -214 104 -48 164 -56 603 -84 332 -21 461 -61 535 -166 73 -104 28 -280
-92 -356 -72 -45 -157 -31 -194 31 -52 89 40 192 121 135 33 -23 38 -11 15 33
-72 139 -285 75 -322 -97 -20 -93 35 -221 119 -276 21 -14 64 -32 96 -40 83
-22 157 -6 342 72 172 73 348 133 473 161 118 25 434 26 529 0 243 -66 445
-197 612 -397 100 -119 175 -238 274 -433 123 -243 134 -244 291 -37 480 632
1082 967 1682 936 291 -15 562 -79 878 -206 54 -21 99 -38 100 -36 2 1 -4 34
-12 72 -62 286 1 604 159 799 155 192 379 289 736 320 151 13 242 47 311 116
118 118 121 302 7 405 -53 47 -95 64 -163 64 -100 0 -165 -55 -173 -143 -3
-38 0 -57 9 -62 8 -5 15 -3 18 6 9 28 60 69 86 69 93 0 144 -105 90 -187 -41
-61 -178 -82 -290 -43 -228 78 -459 281 -565 495 -62 126 -83 210 -83 345 -1
121 16 198 69 309 50 108 108 183 228 297 117 111 145 157 153 253 10 109 -35
195 -128 246 -132 72 -289 6 -289 -122 0 -45 23 -103 40 -103 6 0 10 14 10 30
0 38 39 80 75 80 61 0 104 -45 105 -107 0 -35 -6 -50 -36 -83 -48 -53 -118
-74 -220 -68 l-73 5 -6 -51 c-17 -127 -110 -353 -196 -476 -77 -111 -81 -112
-45 -14 137 369 129 765 -21 1123 -74 177 -162 309 -311 463 -370 382 -922
621 -1427 617 -71 -1 -161 -5 -198 -10z m-1192 -1629 c61 -68 56 -385 -9 -564
-43 -120 -93 -149 -126 -72 -70 158 -12 587 88 645 24 14 26 14 47 -9z m1578
-352 c94 -41 147 -135 147 -263 0 -156 -67 -303 -200 -435 -133 -133 -274
-197 -414 -188 -85 6 -137 30 -190 88 -55 61 -69 101 -70 200 -1 214 155 449
375 565 128 67 247 78 352 33z m-1240 -834 c64 -175 173 -265 386 -321 163
-43 430 -37 609 14 30 8 56 13 58 10 17 -17 -224 -118 -341 -143 -116 -24
-316 -22 -417 4 -197 53 -335 169 -405 342 -28 69 -28 70 -58 63 -16 -5 -57
-8 -90 -7 -100 1 -174 53 -230 164 -35 69 -31 81 10 33 40 -47 124 -93 169
-93 72 1 155 60 233 167 l48 65 6 -129 c4 -72 13 -146 22 -169z"/>
  </g>
</svg>
